<svg width="1796" height="1693" viewBox="0 0 1796 1693" fill="none" xmlns="http://www.w3.org/2000/svg">
<path d="M1025.87 1651.49C946.391 1707.91 848.145 1697.41 763.871 1668.64C499.162 1578.28 302.983 1336.96 145.841 1081.35C88.9534 988.807 34.7633 890.916 11.8303 778.401C-34.737 549.242 70.1318 277.158 254.721 148.124C317.533 104.209 386.911 76.2498 456.508 53.6088C580.24 13.3841 708.659 -11.1028 832.5 5.30923C920.8 17.018 1004.66 49.2382 1085.39 87.5082C1310.7 194.496 1517.55 352.968 1668.44 569.782C1734.67 664.867 1791.24 776.184 1795.21 902.435C1799.17 1028.69 1737.03 1170.52 1631.22 1216.23C1587.45 1235.14 1540.84 1236.47 1495.31 1237.28C1428.32 1238.43 1360.4 1239.1 1294.54 1260.32C1226.51 1282.24 1138.46 1336.29 1127.73 1422.29C1116.25 1514.49 1105.21 1595.28 1025.87 1651.49Z" fill="#1FA15D"/>
</svg>
